<svg width="40" height="40" viewBox="0 0 40 40" fill="none" xmlns="http://www.w3.org/2000/svg">
<g clip-path="url(#clip0)">
<path d="M35.5311 19.9996C35.5186 20.4889 35.362 20.9638 35.081 21.3646C34.7999 21.7654 34.4069 22.0745 33.9512 22.2531C33.4954 22.4317 32.997 22.4719 32.5185 22.3687C32.04 22.2655 31.6025 22.0235 31.2608 21.6729C30.9192 21.3223 30.6885 20.8787 30.5976 20.3977C30.5068 19.9167 30.5598 19.4195 30.7501 18.9685C30.9403 18.5174 31.2594 18.1325 31.6673 17.8618C32.0753 17.5912 32.5539 17.4469 33.0435 17.447C33.7118 17.4557 34.3493 17.7295 34.8158 18.2082C35.2822 18.6869 35.5396 19.3312 35.5311 19.9996V19.9996ZM29.1169 19.9996C29.1169 22.4428 27.1864 24.423 24.8054 24.423C22.4244 24.423 20.4939 22.4428 20.4939 19.9996C20.4939 17.5564 22.4244 15.5761 24.8054 15.5761C27.1864 15.5761 29.1169 17.5564 29.1169 19.9996ZM18.4862 19.9996C18.4862 23.8488 15.4448 26.9686 11.6933 26.9686C7.94172 26.9686 4.90037 23.849 4.90037 19.9996C4.90037 16.1501 7.94172 13.0304 11.6933 13.0304C15.4448 13.0304 18.4862 16.1503 18.4862 19.9996ZM39.9995 19.9996C39.9996 16.0438 38.8268 12.1768 36.6292 8.88766C34.4316 5.59851 31.308 3.0349 27.6535 1.52103C23.999 0.00715929 19.9776 -0.388976 16.0979 0.382717C12.2183 1.15441 8.65454 3.05927 5.85745 5.85642C3.06036 8.65356 1.15552 12.2173 0.383811 16.0971C-0.387897 19.9769 0.00818998 23.9984 1.52198 27.653C3.03578 31.3077 5.59929 34.4313 8.88833 36.629C12.1774 38.8267 16.0442 39.9996 19.9999 39.9996C22.6263 39.9996 25.227 39.4824 27.6535 38.4773C30.08 37.4723 32.2848 35.9991 34.142 34.1419C35.9992 32.2847 37.4724 30.0799 38.4775 27.6534C39.4826 25.2268 39.9999 22.6261 39.9999 19.9996" fill="white"/>
</g>
<defs>
<clipPath id="clip0">
<rect width="40" height="40" fill="white"/>
</clipPath>
</defs>
</svg>
